<svg t="1679908190319" viewBox="0 0 1024 1024" version="1.1" xmlns="http://www.w3.org/2000/svg" p-id="2290" width="200"
	height="200">
	<path
		d="M85.333333 42.666667a42.666667 42.666667 0 0 1 42.368 37.674666L128 85.333333v810.666667h810.666667a42.666667 42.666667 0 0 1 42.368 37.674667L981.333333 938.666667a42.666667 42.666667 0 0 1-37.674666 42.368L938.666667 981.333333H85.333333a42.666667 42.666667 0 0 1-42.368-37.674666L42.666667 938.666667V85.333333a42.666667 42.666667 0 0 1 42.666666-42.666666z m189.610667 568.874666a42.666667 42.666667 0 0 1 42.410667 37.717334l0.256 4.949333v94.848a42.666667 42.666667 0 0 1-85.034667 4.949333l-0.298667-4.949333v-94.848a42.666667 42.666667 0 0 1 42.666667-42.666667zM464.64 421.973333a42.666667 42.666667 0 0 1 42.368 37.674667l0.298667 4.992v284.458667a42.666667 42.666667 0 0 1-85.034667 4.949333l-0.298667-4.949333v-284.458667a42.666667 42.666667 0 0 1 42.666667-42.666667zM654.208 42.666667a42.666667 42.666667 0 0 1 42.410667 37.674666l0.256 4.992v663.722667a42.666667 42.666667 0 0 1-85.034667 4.949333l-0.298667-4.949333V85.333333a42.666667 42.666667 0 0 1 42.666667-42.666666z m189.653333 189.610666a42.666667 42.666667 0 0 1 42.368 37.717334l0.298667 4.949333v474.112a42.666667 42.666667 0 0 1-85.034667 4.949333l-0.298666-4.949333V274.944a42.666667 42.666667 0 0 1 42.666666-42.666667z"
		fill="#000000" p-id="2291"></path>
</svg>