<svg t="1679908164285" viewBox="0 0 1024 1024" version="1.1" xmlns="http://www.w3.org/2000/svg" p-id="2134" width="200"
	height="200">
	<path
		d="M128 896a85.333333 85.333333 0 0 1-85.333333-85.333333V213.333333a85.333333 85.333333 0 0 1 85.333333-85.333333h768a85.333333 85.333333 0 0 1 85.333333 85.333333v597.333334a85.333333 85.333333 0 0 1-85.333333 85.333333z m192-234.666667H128V810.666667h192v-149.333334z m298.666667 0h-213.333334V810.666667h213.333334v-149.333334z m277.333333 0h-192V810.666667H896v-149.333334z m-576-213.333333H128v128h192v-128z m298.666667 0h-213.333334v128h213.333334v-128z m277.333333 0h-192v128H896v-128zM896 213.333333H128v149.333334h768V213.333333z"
		fill="#000000" p-id="2135"></path>
</svg>